<svg xmlns="http://www.w3.org/2000/svg" viewBox="0 0 216 215"><defs><style>.cls-1,.cls-4{fill:#fff}.cls-1,.cls-2,.cls-3{stroke:#000;stroke-linecap:round}.cls-1,.cls-5{stroke-miterlimit:10}.cls-1,.cls-3{stroke-width:6px}.cls-2,.cls-5{fill:none;stroke-width:4px}.cls-2,.cls-3{stroke-linejoin:round}.cls-5{stroke:#fff}</style></defs><title>Icons_Buildings_white_bg</title><g id="_25_Casino_am_Kornmarkt" data-name="25_Casino_am_Kornmarkt"><path class="cls-1" d="M7.46 72.84h201.08a.4.4 0 0 1 .4.4V174H7.06V73.24a.4.4 0 0 1 .4-.4z"/><path class="cls-2" d="M7.06 131.6h201.88M7.06 124.19h201.88M7.06 98.52h62.58M146.36 98.52h62.58M69.64 72.84h76.72V174H69.64z"/><path class="cls-3" d="M161.4 41H54.6L0 72.84h216L161.4 41z"/><path class="cls-2" d="M106.28 138.93h3.46a4.65 4.65 0 0 1 4.65 4.65v28.2h-12.76v-28.2a4.65 4.65 0 0 1 4.65-4.65zM127.35 138.93h3.46a4.65 4.65 0 0 1 4.65 4.65v28.2H122.7v-28.2a4.65 4.65 0 0 1 4.65-4.65zM85.35 138.93h3.46a4.65 4.65 0 0 1 4.65 4.65v28.2H80.7v-28.2a4.65 4.65 0 0 1 4.65-4.65z"/><rect x="14.17" y="108.69" width="6.33" height="6.33" rx="1.56" ry="1.56"/><rect x="28.53" y="108.69" width="6.33" height="6.33" rx="1.56" ry="1.56"/><rect x="41.83" y="108.69" width="6.33" height="6.33" rx="1.56" ry="1.56"/><rect x="55.13" y="108.69" width="6.33" height="6.33" rx="1.56" ry="1.56"/><path class="cls-2" d="M45 139.01v15.04M31.7 139.01v15.04M58.29 139.01v15.04M18.41 139.01v15.04M45 82.54v6.29M31.7 82.54v6.29M58.3 82.54v6.29M18.41 82.54v6.29"/><rect x="154" y="108.69" width="6.33" height="6.33" rx="1.56" ry="1.56"/><rect x="168.37" y="108.69" width="6.33" height="6.33" rx="1.56" ry="1.56"/><rect x="181.67" y="108.69" width="6.33" height="6.33" rx="1.56" ry="1.56"/><rect x="194.96" y="108.69" width="6.33" height="6.33" rx="1.56" ry="1.56"/><path class="cls-2" d="M184.83 139.01v15.04M171.54 139.01v15.04M198.13 139.01v15.04M158.24 139.01v15.04M184.84 82.54v6.29M171.54 82.54v6.29M198.13 82.54v6.29M158.25 82.54v6.29M121.31 84.98v32.44M108.01 84.98v32.44M94.71 84.98v32.44"/><path class="cls-4" d="M105.41 47.68L69.64 70.44h76.72l-35.77-22.76a4.82 4.82 0 0 0-5.18 0z"/><path class="cls-5" d="M59.72 70.44V58.68M46.15 70.44V58.68M169.85 70.44V58.68M156.28 70.44V58.68"/></g></svg>