<svg xmlns="http://www.w3.org/2000/svg" viewBox="0 0 216 215"><defs><style>.cls-1,.cls-4{fill:#fff}.cls-1,.cls-2,.cls-3{stroke:#000;stroke-linecap:round;stroke-linejoin:round}.cls-1,.cls-2{stroke-width:6px}.cls-3{fill:none;stroke-width:4px}</style></defs><title>Icons_Buildings_white_bg</title><g id="_23_Geburtshaus_Karl_Marx" data-name="23_Geburtshaus_Karl_Marx"><path class="cls-1" d="M28.57 94.93h158.85v90.76H28.57z"/><path class="cls-2" d="M33.22 47.79h149.56v27.96H33.22z"/><path class="cls-2" d="M195.72 94.93H20.28l12.94-19.19h149.56l12.94 19.19z"/><path class="cls-3" d="M102.64 151.36h10.71a4.71 4.71 0 0 1 4.71 4.71v29.63H97.94v-29.63a4.71 4.71 0 0 1 4.7-4.71zM56.41 110.57v22.03M108 110.57v22.03M82.21 110.57v22.03M159.59 110.57v22.03M133.79 110.57v22.03"/><path class="cls-4" d="M105.53 62.43h4.94a5.17 5.17 0 0 1 5.17 5.17v14.79h-15.28V67.6a5.17 5.17 0 0 1 5.17-5.17zM68.22 62.43h4.94a5.17 5.17 0 0 1 5.17 5.17v14.79H63V67.6a5.17 5.17 0 0 1 5.17-5.17zM142.85 62.43h4.94A5.17 5.17 0 0 1 153 67.6v14.79h-15.33V67.6a5.17 5.17 0 0 1 5.18-5.17z"/><path d="M99.49 37.4l6.82-7.4a2.31 2.31 0 0 1 3.38 0l6.81 7.35a5.84 5.84 0 0 1 1.56 4v14.23H97.94V41.36a5.84 5.84 0 0 1 1.55-3.96zM136.81 37.4l6.81-7.4a2.31 2.31 0 0 1 3.38 0l6.81 7.35a5.84 5.84 0 0 1 1.56 4v14.23h-20.12V41.36a5.84 5.84 0 0 1 1.56-3.96zM62.18 37.4L69 30a2.31 2.31 0 0 1 3.38 0l6.81 7.35a5.84 5.84 0 0 1 1.56 4v14.23H60.62V41.36a5.84 5.84 0 0 1 1.56-3.96z"/><rect x="50.41" y="142.94" width="12" height="25.58" rx="3.58" ry="3.58"/><rect x="76.21" y="142.94" width="12" height="25.58" rx="3.58" ry="3.58"/><rect x="127.79" y="142.94" width="12" height="25.58" rx="3.58" ry="3.58"/><rect x="153.59" y="142.94" width="12" height="25.58" rx="3.58" ry="3.58"/><path d="M103.54 142.94h9.6a5.26 5.26 0 0 1 5.26 5.26v1.8a2.09 2.09 0 0 1-2.09 2.09h-15.93a2.09 2.09 0 0 1-2.1-2.09v-1.8a5.26 5.26 0 0 1 5.26-5.26z"/><circle cx="97.59" cy="150.17" r="3.71"/><circle cx="118.41" cy="150.17" r="3.71"/><path d="M97.22 149.51h21.19v3.71H97.22z"/></g></svg>