<svg xmlns="http://www.w3.org/2000/svg" viewBox="0 0 216 215"><defs><style>.cls-1,.cls-4{fill:#fff}.cls-1,.cls-2,.cls-3,.cls-5{stroke:#000;stroke-linecap:round}.cls-1{stroke-miterlimit:10;stroke-width:6px}.cls-2,.cls-3,.cls-5{stroke-width:6px;stroke-linejoin:round}.cls-3,.cls-5{stroke-width:4px}.cls-5{fill:none}</style></defs><title>Icons_Buildings_white_bg</title><g id="_26_Jesuitenkirche___Gymnasium" data-name="26_Jesuitenkirche_&amp;_Gymnasium"><path class="cls-1" d="M174.49 115.92L134.12 42l-40.37 73.92H42.39a.88.88 0 0 0-.88.88v89h133z"/><path class="cls-2" d="M67.51 80.25l-26 35.67h52.01L67.51 80.25z"/><path class="cls-3" d="M129.46 123.92h8.87a14 14 0 0 1 14 14v67.88h-36.87v-67.88a14 14 0 0 1 14-14z"/><path class="cls-4" d="M124.1 181.45h19.58a4 4 0 0 1 4 4v16.43h-27.56v-16.45a4 4 0 0 1 3.98-3.98z"/><path class="cls-5" d="M104.57 144.81v61.22M133.89 91.01v9.58M163.22 144.81v61.22M65.49 129.1h4a6.37 6.37 0 0 1 6.37 6.37v46H59.12v-46a6.37 6.37 0 0 1 6.37-6.37z"/><circle cx="133.89" cy="76.85" r="2.66"/><path d="M72.23 95.8h32.34l-11.05 20.12L72.23 95.8z"/><path class="cls-5" d="M134.12 42.04V8.97M126.07 18.85h16.11"/></g></svg>