<svg xmlns="http://www.w3.org/2000/svg" viewBox="0 0 216 215"><defs><style>.cls-1,.cls-2{stroke:#000;stroke-linecap:round}.cls-1{stroke-linejoin:round;fill:none;stroke-width:4px}.cls-2{fill:#fff;stroke-miterlimit:10;stroke-width:6px}</style></defs><title>Icons_Buildings_white_bg</title><g id="_32_Judengasse" data-name="32_Judengasse"><path class="cls-1" d="M29.85 165.31h32.87"/><path class="cls-2" d="M81.39 86l-7.94-29.63a78.14 78.14 0 0 0-43.59 70.1v40.21h32.86v-43.22A45.21 45.21 0 0 1 81.6 86.68q-.12-.32-.21-.68zM142.55 56.37L134.6 86q-.09.33-.2.65a45.21 45.21 0 0 1 18.89 36.78l-.13 43.22h33v-40.18a78.14 78.14 0 0 0-43.61-70.1z"/><path class="cls-1" d="M29.85 135.09h32.87M32.88 104.87h34.13M164.98 72.39l-24.29 20.38M51.02 72.39l24.29 20.38M148.7 104.87h34.13M153.28 135.09h32.87"/><path class="cls-2" d="M143.15 54.16a8.11 8.11 0 0 0-6-10 122.83 122.83 0 0 0-29.2-3.5 122.83 122.83 0 0 0-29.19 3.5 8.11 8.11 0 0 0-6 10L81.39 86a8.09 8.09 0 0 0 7.81 6h37.58a8.09 8.09 0 0 0 7.81-6z"/><path class="cls-1" d="M123.49 57.32L108 84.14 92.51 57.32h30.98z"/><path class="cls-1" d="M123.49 75.18H92.51L108 48.36l15.49 26.82z"/></g></svg>