<svg xmlns="http://www.w3.org/2000/svg" viewBox="0 0 216 215"><defs><style>.cls-1{fill:#fff}.cls-1,.cls-2,.cls-3{stroke:#000;stroke-linecap:round}.cls-1,.cls-2{stroke-miterlimit:10}.cls-1,.cls-3{stroke-width:6px}.cls-2,.cls-3{fill:none}.cls-2{stroke-width:4px}.cls-3{stroke-linejoin:round}.cls-4{font-size:19px;font-family:ArtegraSans-Bold,ArtegraSans Bold;font-weight:700}</style></defs><title>Icons_Buildings_white_bg</title><g id="_27_Karl_Marx_Statue" data-name="27_Karl_Marx_Statue"><path class="cls-1" d="M97.99 126.53h-8.22v25.71h-9.55v39.17h55.56v-39.17h-9.55v-25.71h-8.22M118 126.53V90.1h10.6V79.9A20.61 20.61 0 0 0 108 59.29 20.61 20.61 0 0 0 87.39 79.9v10.2H98v36.43M109.5 23.59h-3a9.8 9.8 0 0 0-9.8 9.8v9.43c0 9.37 4.39 13.92 9.8 13.92h3c5.41 0 9.8-4.43 9.8-13.92v-9.44a9.8 9.8 0 0 0-9.8-9.79z"/><path class="cls-2" d="M96.7 40.41h22.6M79.47 154.07h57.06M92.68 128.84h30.64"/><path class="cls-3" d="M92.86 37.03h3.84M119.3 37.03h3.84"/><text class="cls-4" transform="translate(93.2 177.77)">K M</text></g></svg>