<svg xmlns="http://www.w3.org/2000/svg" viewBox="0 0 216 215"><defs><style>.cls-1{fill:#fff}.cls-1,.cls-2,.cls-3{stroke:#000;stroke-linecap:round}.cls-1,.cls-4{stroke-miterlimit:10}.cls-1,.cls-2{stroke-width:6px}.cls-2,.cls-3{stroke-linejoin:round}.cls-3,.cls-4{fill:none;stroke-width:4px}.cls-4{stroke:#fff}</style></defs><title>Icons_Buildings_white_bg</title><g id="_31_Museum_Dom" data-name="31_Museum_Dom"><path class="cls-1" d="M10.21 95.07H205.8v59.91H10.21z"/><path class="cls-2" d="M173.57 60.02H42.43L6 95.07h204l-36.43-35.05z"/><path class="cls-3" d="M205.79 125.02H10.21M143 125h1.12A10.83 10.83 0 0 1 155 135.86V155h-22.81v-19.14A10.83 10.83 0 0 1 143 125zM108 144.08v-8.62M108 144.08v-8.62M83.81 144.08v-8.62M83.81 144.08v-8.62M59.63 144.08v-8.62M59.63 144.08v-8.62M35.44 144.08v-8.62M108 114.35v-8.61M108 114.35v-8.61M83.81 114.35v-8.61M83.81 114.35v-8.61M59.63 114.35v-8.61M59.63 114.35v-8.61M35.44 114.35v-8.61M180.56 114.35v-8.61M180.56 114.35v-8.61M180.56 144.08v-8.62M156.37 114.35v-8.61M156.37 114.35v-8.61M132.19 114.35v-8.61M132.19 114.35v-8.61"/><path class="cls-4" d="M59.54 88.32v-9.46M108 88.32v-9.46M156.37 88.32v-9.46"/></g></svg>