<svg xmlns="http://www.w3.org/2000/svg" viewBox="0 0 216 215"><defs><style>.cls-1,.cls-2,.cls-3,.cls-4{stroke:#000;stroke-linejoin:round}.cls-1,.cls-2,.cls-4{stroke-linecap:round}.cls-1,.cls-4{stroke-width:6px}.cls-2,.cls-3{fill:none;stroke-width:4px}.cls-4{fill:#fff}</style></defs><title>Icons_Buildings_white_bg</title><g id="_22_Rheinisches_Landesmuseum" data-name="22_Rheinisches Landesmuseum"><path class="cls-1" d="M92.55 74.11l2.31 9.52h26.28l2.31-9.52M123.45 74.11l-15.64-21.17-15.26 21.17"/><path class="cls-2" d="M108 52.94V36.8"/><path d="M102.45 23.35h.55A10.69 10.69 0 0 1 113.65 34v.89a1.87 1.87 0 0 1-1.87 1.87h-7.54a1.87 1.87 0 0 1-1.87-1.87V23.44a.09.09 0 0 1 .09-.09z"/><path class="cls-3" d="M104.56 33.93v-13.7"/><path class="cls-4" d="M121.14 173.84h.69a6 6 0 0 1 6 6v14.91H88.15v-14.89a6 6 0 0 1 6-6h.69V83.63h26.27z"/><path class="cls-2" d="M88.15 103.3h39.7M88.15 151.14h39.7"/></g></svg>