<svg id="_21_Stadtmuseum_Simeonstift" data-name="21_Stadtmuseum_Simeonstift" xmlns="http://www.w3.org/2000/svg" viewBox="0 0 216 215"><defs><style>.cls-1,.cls-4{fill:#fff}.cls-1,.cls-2,.cls-3{stroke:#000;stroke-linecap:round;stroke-linejoin:round}.cls-1,.cls-2{stroke-width:6px}.cls-3{fill:none;stroke-width:4px}</style></defs><title>Icons_Buildings_white_bg</title><path class="cls-1" d="M21.85 88.38h172.31v65.22H21.85z"/><path class="cls-2" d="M201.33 88.38H14.67L47.8 61.41h119.26l34.27 26.97z"/><path class="cls-3" d="M108.4 133.71a9.94 9.94 0 0 1 9.94 9.94V153a.56.56 0 0 1-.56.56H99a.56.56 0 0 1-.56-.56v-9.38a9.94 9.94 0 0 1 9.94-9.94zM43.58 105.48v13.16M108.4 105.48v13.16M75.99 105.48v13.16M173.21 105.48v13.16M140.81 105.48v13.16"/><path class="cls-4" d="M92.23 72.51a5.17 5.17 0 0 0-5.17 5.17v5.17h10.33v-5.17a5.17 5.17 0 0 0-5.16-5.17zM123.77 72.51a5.17 5.17 0 0 0-5.17 5.17v5.17h10.33v-5.17a5.17 5.17 0 0 0-5.16-5.17zM155.32 72.51a5.17 5.17 0 0 0-5.17 5.17v5.17h10.33v-5.17a5.17 5.17 0 0 0-5.16-5.17zM60.68 72.51a5.17 5.17 0 0 0-5.17 5.17v5.17h10.34v-5.17a5.17 5.17 0 0 0-5.17-5.17z"/><rect x="38.02" y="128.15" width="11.12" height="11.13" rx="2" ry="2"/><rect x="70.43" y="128.15" width="11.12" height="11.13" rx="2" ry="2"/><rect x="135.24" y="128.15" width="11.12" height="11.13" rx="2" ry="2"/><rect x="167.65" y="128.15" width="11.12" height="11.13" rx="2" ry="2"/></svg>