<svg xmlns="http://www.w3.org/2000/svg" viewBox="0 0 216 215"><defs><style>.cls-1{fill:#fff;stroke-linecap:round;stroke-miterlimit:10;stroke-width:6px;stroke:#000}.cls-2{stroke:#000;fill:none;stroke-linecap:square;stroke-linejoin:round;stroke-width:4px}</style></defs><title>Icons_Buildings_white_bg</title><g id="_29_Wberbach" data-name="29_Wberbach"><circle class="cls-1" cx="108" cy="67.51" r="49.95" transform="rotate(-13.91 107.99 67.5)"/><path class="cls-1" d="M121.82 193.23s-47.74-5.55-11.32-16.71c14.59-4.47 20.69-9.93 23.15-15.11 2.21-4.65-.1-9.32-4.29-11.33-2-1-4.24-.77-6.45-.64-35.66 2.08-45.91-8.83-17.64-12.17.47-.06 1-.12 1.42-.2 36.63-6.3 34.68-32.27 34.68-32.27s-8.77 7.94-19.54 10.7c-2.89 8.58-26 12.65-39.78 17.13a14.08 14.08 0 0 0-9.83 15.29c1.08 7 7.44 9.95 19.36 10.44 9.81.4 19.17.41 24.81 1 2.38.23 3 3.61.78 4.49-11.8 4.68-20.44 4.82-31.44 10.9-17.06 9.43.93 27.8 36.09 27.8"/><path class="cls-2" d="M80.99 26.25l60.11 79.56M146.12 35l-37.25 28.15M153.87 57.55l-31.34 23.68M64.11 46.94l52.99 70.13"/></g></svg>