<svg xmlns="http://www.w3.org/2000/svg" viewBox="0 0 216 215"><defs><style>.cls-1,.cls-5{fill:#fff}.cls-1,.cls-2,.cls-3,.cls-4{stroke:#000;stroke-linecap:round}.cls-1{stroke-miterlimit:10}.cls-1,.cls-2{stroke-width:6px}.cls-2,.cls-3,.cls-4{stroke-linejoin:round}.cls-3{fill:none}.cls-3,.cls-4{stroke-width:4px}</style></defs><title>Icons_Buildings_white_bg</title><g id="_30_Wohnhaus_Jenny_von_Westphalen" data-name="30_Wohnhaus_Jenny_von_Westphalen"><path class="cls-1" d="M18.73 84.26h178.54v90.06H18.73z"/><path class="cls-2" d="M197.27 40.68H18.73l-4.56 43.58h187.66l-4.56-43.58z"/><path class="cls-3" d="M31.61 143.66h57.58v30.66H31.61zM146.01 143.66h38.52v30.66h-38.52zM115.15 143.66h6A10.37 10.37 0 0 1 131.51 154v20.28h-26.73V154a10.37 10.37 0 0 1 10.37-10.34z"/><path class="cls-4" d="M119 134.37h-1.7a12.51 12.51 0 0 0-12.51 12.51V157a13.37 13.37 0 0 1 26.73 0v-10.12A12.51 12.51 0 0 0 119 134.37z"/><path class="cls-3" d="M108.83 118.15v-14.93M87.04 118.15v-14.93M65.26 118.15v-14.93M150.74 118.15v-14.93M129.78 118.15v-14.93M18.73 84.26h26.42v5.91a20.51 20.51 0 0 1-20.51 20.51h-5.91V84.26z"/><path class="cls-3" d="M171.31 84.26h5.91a20.51 20.51 0 0 1 20.51 20.51v5.91h-26.42V84.26z" transform="rotate(-180 184.525 97.475)"/><circle class="cls-5" cx="118.15" cy="138.77" r="3.03"/><path class="cls-5" d="M64 59.52h2.45a4.25 4.25 0 0 1 4.25 4.25v11.61h-11V63.77a4.25 4.25 0 0 1 4.3-4.25zM107.6 59.52h2.45a4.25 4.25 0 0 1 4.25 4.25v11.61h-11V63.77a4.25 4.25 0 0 1 4.3-4.25zM149.51 59.52H152a4.25 4.25 0 0 1 4.25 4.25v11.61h-11V63.77a4.25 4.25 0 0 1 4.26-4.25z"/></g></svg>