<svg xmlns="http://www.w3.org/2000/svg" viewBox="0 0 216 215"><defs><style>.cls-1{fill:#fff}.cls-1,.cls-2,.cls-3,.cls-5{stroke:#000}.cls-1,.cls-2,.cls-3{stroke-linecap:round}.cls-1,.cls-4,.cls-5{stroke-miterlimit:10}.cls-1,.cls-2,.cls-4{stroke-width:6px}.cls-2,.cls-3{stroke-linejoin:round}.cls-3,.cls-4,.cls-5{fill:none}.cls-3,.cls-5{stroke-width:4px}.cls-4{stroke:#fff}</style></defs><title>Icons_Buildings_white_bg</title><g id="_24_Wohnhaus_Karl_Marx" data-name="24_Wohnhaus_Karl_Marx"><path class="cls-1" d="M166.38 141.31V96.93H45.17v44.38"/><path d="M106.59 107.78h2.82a7.5 7.5 0 0 1 7.5 7.5v15.19H99.09v-15.19a7.5 7.5 0 0 1 7.5-7.5zM70.3 107.78h2.82a7.5 7.5 0 0 1 7.5 7.5v15.19H62.8v-15.19a7.5 7.5 0 0 1 7.5-7.5zM143.38 107.78h2.82a7.5 7.5 0 0 1 7.5 7.5v15.19h-17.82v-15.19a7.5 7.5 0 0 1 7.5-7.5z"/><path class="cls-1" d="M45.17 141.31v44.38h121.21v-44.38"/><path class="cls-2" d="M144 46.39H45.17v50.54h125.66c0 .43-26.83-50.54-26.83-50.54z"/><path class="cls-3" d="M62.8 156.01h90.9v29.69H62.8z"/><path class="cls-4" d="M88.54 78.17v13.08M122.61 78.17v13.08M71.91 55.99v13.07M105.97 55.99v13.07"/><path d="M58.19 29.31h9.21v17.08h-9.21z"/><path class="cls-5" d="M45.17 142.29h123.19"/><path class="cls-3" d="M80.32 185.69v-29.68M135.88 185.69v-29.68M116.83 186.78v-29.69"/></g></svg>